REM DIRINDEX 1\2,1\3,1\4,1\5
REM DIRNAME cjc004,folder01,folder02,folder03,folder04
TITLE ""
FILE "1Q_t_0562-0571.mp3" MP3
  TRACK 01 AUDIO
    TITLE "3:cjc004_2588"
    INDEX 01 00:00:00
  TRACK 02 AUDIO
    TITLE "0:"
    INDEX 01 00:01:17
  TRACK 03 AUDIO
    TITLE "4:cjc004_2589"
    INDEX 01 00:01:42
  TRACK 04 AUDIO
    TITLE "0:"
    INDEX 01 00:03:04
  TRACK 05 AUDIO
    TITLE "5:cjc004_2590"
    INDEX 01 00:03:33
  TRACK 06 AUDIO
    TITLE "0:"
    INDEX 01 00:08:34
  TRACK 07 AUDIO
    TITLE "3:cjc004_2591"
    INDEX 01 00:09:14
  TRACK 08 AUDIO
    TITLE "0:"
    INDEX 01 00:10:31
  TRACK 09 AUDIO
    TITLE "4:cjc004_2592"
    INDEX 01 00:10:61
  TRACK 10 AUDIO
    TITLE "0:"
    INDEX 01 00:12:32
  TRACK 11 AUDIO
    TITLE "5:cjc004_2593"
    INDEX 01 00:12:63
  TRACK 12 AUDIO
    TITLE "0:"
    INDEX 01 00:17:49
  TRACK 13 AUDIO
    TITLE "3:cjc004_2594"
    INDEX 01 00:18:25
  TRACK 14 AUDIO
    TITLE "0:"
    INDEX 01 00:19:40
  TRACK 15 AUDIO
    TITLE "4:cjc004_2595"
    INDEX 01 00:19:73
  TRACK 16 AUDIO
    TITLE "0:"
    INDEX 01 00:21:19
  TRACK 17 AUDIO
    TITLE "5:cjc004_2596"
    INDEX 01 00:21:45
  TRACK 18 AUDIO
    TITLE "0:"
    INDEX 01 00:25:23
  TRACK 19 AUDIO
    TITLE "3:cjc004_2597"
    INDEX 01 00:26:05
  TRACK 20 AUDIO
    TITLE "0:"
    INDEX 01 00:27:34
  TRACK 21 AUDIO
    TITLE "4:cjc004_2598"
    INDEX 01 00:27:61
  TRACK 22 AUDIO
    TITLE "0:"
    INDEX 01 00:29:21
  TRACK 23 AUDIO
    TITLE "5:cjc004_2599"
    INDEX 01 00:29:48
  TRACK 24 AUDIO
    TITLE "0:"
    INDEX 01 00:34:65
  TRACK 25 AUDIO
    TITLE "3:cjc004_2600"
    INDEX 01 00:35:41
  TRACK 26 AUDIO
    TITLE "0:"
    INDEX 01 00:36:62
  TRACK 27 AUDIO
    TITLE "4:cjc004_2601"
    INDEX 01 00:37:16
  TRACK 28 AUDIO
    TITLE "0:"
    INDEX 01 00:38:47
  TRACK 29 AUDIO
    TITLE "5:cjc004_2602"
    INDEX 01 00:39:02
  TRACK 30 AUDIO
    TITLE "0:"
    INDEX 01 00:42:55
  TRACK 31 AUDIO
    TITLE "3:cjc004_2603"
    INDEX 01 00:43:31
  TRACK 32 AUDIO
    TITLE "0:"
    INDEX 01 00:44:44
  TRACK 33 AUDIO
    TITLE "4:cjc004_2604"
    INDEX 01 00:45:06
  TRACK 34 AUDIO
    TITLE "0:"
    INDEX 01 00:46:39
  TRACK 35 AUDIO
    TITLE "5:cjc004_2605"
    INDEX 01 00:46:68
  TRACK 36 AUDIO
    TITLE "0:"
    INDEX 01 00:50:72
  TRACK 37 AUDIO
    TITLE "3:cjc004_2606"
    INDEX 01 00:51:54
  TRACK 38 AUDIO
    TITLE "0:"
    INDEX 01 00:52:67
  TRACK 39 AUDIO
    TITLE "4:cjc004_2607"
    INDEX 01 00:53:11
  TRACK 40 AUDIO
    TITLE "0:"
    INDEX 01 00:54:40
  TRACK 41 AUDIO
    TITLE "5:cjc004_2608"
    INDEX 01 00:54:68
  TRACK 42 AUDIO
    TITLE "0:"
    INDEX 01 00:59:06
  TRACK 43 AUDIO
    TITLE "3:cjc004_2609"
    INDEX 01 00:59:63
  TRACK 44 AUDIO
    TITLE "0:"
    INDEX 01 01:00:66
  TRACK 45 AUDIO
    TITLE "4:cjc004_2610"
    INDEX 01 01:01:21
  TRACK 46 AUDIO
    TITLE "0:"
    INDEX 01 01:02:26
  TRACK 47 AUDIO
    TITLE "5:cjc004_2611"
    INDEX 01 01:02:48
  TRACK 48 AUDIO
    TITLE "0:"
    INDEX 01 01:06:55
  TRACK 49 AUDIO
    TITLE "3:cjc004_2612"
    INDEX 01 01:07:29
  TRACK 50 AUDIO
    TITLE "0:"
    INDEX 01 01:08:60
  TRACK 51 AUDIO
    TITLE "4:cjc004_2613"
    INDEX 01 01:09:16
  TRACK 52 AUDIO
    TITLE "0:"
    INDEX 01 01:11:03
  TRACK 53 AUDIO
    TITLE "5:cjc004_2614"
    INDEX 01 01:11:37
  TRACK 54 AUDIO
    TITLE "0:"
    INDEX 01 01:15:60
  TRACK 55 AUDIO
    TITLE "3:cjc004_2615"
    INDEX 01 01:16:34
  TRACK 56 AUDIO
    TITLE "0:"
    INDEX 01 01:17:65
  TRACK 57 AUDIO
    TITLE "4:cjc004_2616"
    INDEX 01 01:18:15
  TRACK 58 AUDIO
    TITLE "0:"
    INDEX 01 01:19:40
  TRACK 59 AUDIO
    TITLE "5:cjc004_2617"
    INDEX 01 01:19:68
  TRACK 60 AUDIO
    TITLE "0:"
    INDEX 01 01:24:30
